<svg id="Layer_1" data-name="Layer 1" xmlns="http://www.w3.org/2000/svg" viewBox="0 0 853.9 641.94"><defs><style>.cls-1{fill:#fff;}</style></defs><path class="cls-1" d="M3342.24,522.41c-33.94,55.83-82.46,83.37-147.65,79.05-24.49-1.63-47-10.25-67.69-23.42q-34.33-21.82-68.76-43.48c-1.68-1.06-3.45-2-5.92-3.41v6.76c0,64.59.15,129.17,0,193.76-.2,64.15-38.56,119.81-98.22,143.13-63.87,25-138.49,2.7-178.56-53.07a39.4,39.4,0,0,0-10.39-9.84q-135.93-87.39-272-174.5c-1.4-.9-2.75-1.87-4.65-3.15l76.45-119.19,100.45,64.42c-7.07,11.55-14,22.78-21.28,34.73l102,34.27c.13-2.89.32-5.18.32-7.48,0-80.87-.12-161.74.07-242.61.12-54.93,22.75-98.7,68.2-129.34,75.17-50.69,176.75-24.66,219.63,55.24a22.2,22.2,0,0,0,7.33,8q147.42,93.34,295,186.43C3338.25,519.75,3339.94,520.9,3342.24,522.41Zm-572.67,41.34c0,54.67-.08,109.34.08,164a179.45,179.45,0,0,0,1.81,25.16c10.12,70.27,81.37,120.45,151.06,106.58,63.23-12.59,106.14-64.62,106.2-129.17q.14-166.26,0-332.51a151,151,0,0,0-1.06-17.91c-11.18-93.62-118.14-144.29-197.54-93.18-40.16,25.84-60.16,63.61-60.45,111.33C2769.31,453.29,2769.57,508.52,2769.57,563.75ZM3050.89,366c.45,20.54,1.09,40.69,1.27,60.83.23,23.77.13,47.54,0,71.31,0,3.53.85,5.68,4,7.66,28.07,17.53,55.85,35.52,84,52.89,37.17,22.9,76.37,26.53,117.05,10.49,21-8.27,38.11-21.84,52.17-39.95ZM2520.56,627.29l231.27,148.25c-1.76-10.39-3.95-19.89-4.83-29.51-.9-9.85-.6-19.81-.67-29.73-.09-12.54-.17-25.08.06-37.61.07-4-1-6-5-7.24-14.95-4.73-29.79-9.83-44.65-14.82-29.2-9.8-58.39-19.62-88.14-29.62l24.67-40.23-61.18-39.26c-.78,1-1.41,1.68-1.9,2.44C2553.75,575.58,2537.3,601.21,2520.56,627.29Z" transform="translate(-2488.34 -243.03)"/><path class="cls-1" d="M2899.34,322.72a77.17,77.17,0,1,1-.51,154.33c-42.44-.09-76.93-34.84-76.85-77.45A77.16,77.16,0,0,1,2899.34,322.72Zm.14,130.87A54,54,0,0,0,2953.17,400c.14-29.51-24.31-54-53.9-54.06a53.81,53.81,0,1,0,.21,107.62Z" transform="translate(-2488.34 -243.03)"/><path class="cls-1" d="M2860,698.78V676.09h69.4v22.69Z" transform="translate(-2488.34 -243.03)"/><path class="cls-1" d="M2860,745.35V722.53h69.33v22.82Z" transform="translate(-2488.34 -243.03)"/></svg>