<svg id="Layer_1" data-name="Layer 1" xmlns="http://www.w3.org/2000/svg" viewBox="0 0 692.57 522.15"><defs><style>.cls-1{fill:#dc1c47;}.cls-2{fill:#dbdbdb;}.cls-3{fill:#fefefe;}.cls-4{fill:#df1c4a;}.cls-5{fill:#e61d58;}.cls-6{fill:#e21c4d;}.cls-7{fill:#e31d5c;}.cls-8{fill:#de1d5e;}.cls-9{fill:#e51d55;}.cls-10{fill:#df1c4b;}.cls-11{fill:#c81b5b;}.cls-12{fill:#c51b5f;}.cls-13{fill:#d91c4a;}.cls-14{fill:#e51d5c;}.cls-15{fill:#c21a62;}.cls-16{fill:#d81d60;}.cls-17{fill:#e41d51;}.cls-18{fill:#c01a64;}.cls-19{fill:#cf1c64;}.cls-20{fill:#db1c5f;}.cls-21{fill:#d41c61;}.cls-22{fill:#e81d59;}.cls-23{fill:#be1a66;}.cls-24{fill:#d51c4e;}.cls-25{fill:#d61c4d;}.cls-26{fill:#cc1b57;}.cls-27{fill:#c91b65;}.cls-28{fill:#ca1b59;}.cls-29{fill:#d21b51;}.cls-30{fill:#ce1b55;}.cls-31{fill:#d21c62;}.cls-32{fill:#d11b52;}.cls-33{fill:#cf1b55;}.cls-34{fill:#e91d56;}.cls-35{fill:#dedede;}.cls-36{fill:#d42e57;}.cls-37{fill:#e71d53;}.cls-38{fill:#010000;}.cls-39{fill:#e41c4f;}.cls-40{fill:#e32453;}.cls-41{fill:#e22654;}</style></defs><path d="M2541.67,830c-61.6-40.88-124.35-80-186.47-120-2.73-1.75-3.59-2.86-1.53-6q28.9-44.58,57.37-89.43c2.28-3.6,3.67-3.57,7.09-1.35q36.66,23.91,73.67,47.29c2.82,1.78,3.71,3,1.58,6.13-4.75,7-9,14.45-13.51,21.65-1.33,2.1-1.63,3,1.34,4Q2519.67,704.94,2558,718c3.22,1.09,3.5-.06,3.49-2.79-.08-19.19,0-38.38,0-57.57,0-49-.57-98.09.26-147.11,1-60.7,46.19-111.12,106.1-120,51.71-7.68,103.19,18.46,127.81,65a16.22,16.22,0,0,0,6.08,6.43Q2922,537.86,3042.35,613.74c3.62,2.28,3.23,3.61,1.33,6.72-18.75,30.57-45.18,50.59-80.42,58.1-31.21,6.64-60.89,1.9-88.27-14.59-20.31-12.23-40.17-25.2-60.22-37.84l-4.45-2.76v5.36c0,52.54.1,105.08,0,157.63s-31.24,97.71-79.93,116.75c-52.05,20.35-113.08,2.11-145.35-43.54a25.78,25.78,0,0,0-7.81-7.44c-8.58-5.21-17.09-10.53-25.63-15.81C2547.9,834.81,2545,832,2541.67,830Z" transform="translate(-2352.53 -389.22)"/><path class="cls-1" d="M2791.05,536.58c0,1.06.16,2.12.16,3.18q0,99.63,0,199.25c0,1.06-.11,2.12-.16,3.18a6.72,6.72,0,0,1-3.63,1.79c-19.45,4-38.68,9.55-58.86,8.72-4.1-.17-8.13,1-12.26,1a6.29,6.29,0,0,0-4,1.89c-1.27,1-2.51,2.38-4.42,1.27-.35-1.68.81-2.86,1.39-4.23,1.78-4.2.1-7.6-4.31-8.71a20.45,20.45,0,0,0-5-.35h-39.29c-.61,0-1.22,0-1.82,0-5.18.21-8.49,2.75-8.42,6.46s3.39,6.23,8.61,6.29c13.09.14,26.19,0,39.28.07,2.25,0,4.59-.35,6.68,1,.87,1.12,0,1.62-.81,2a10.36,10.36,0,0,1-4.49.58c-13.7,0-27.41.06-41.11,0-7.57,0-10.21-2.12-12.17-9.6a4.92,4.92,0,0,0-3.83-4c-14-3.81-27.09-10-40.29-15.91-6-2.66-12.13-4.93-17.93-8-1.44-.75-3.28-1-3.81-2.94q0-90.16-.1-180.34c0-3.91,1.07-5,5-5.49,9.21-1.25,18.42-2.05,27.69-2.51a31.82,31.82,0,0,1,10.83,1c2.57,1,3.11,3.52,4,5.76,9.11,22.07,25.13,35.69,48.89,39.7,23.23,3.91,48.23-7.44,60.84-27.54a56.45,56.45,0,0,0,5.83-11.33c.59-1.68,1.11-3.52,2.94-4.44,4.07-.85,8.13,0,12.17,0,7,0,13.59,3.39,20.87,1.09C2783,534.37,2787.22,535.68,2791.05,536.58Z" transform="translate(-2352.53 -389.22)"/><path class="cls-2" d="M2810.47,562.19q-.07-22.14-.16-44.28c0-8.95.12-17.92-2.63-26.61-.19-.6,0-1.8.43-2,1.1-.59,2,.46,2.83,1q21.79,13.73,43.56,27.49L3014.86,619c1.42.89,2.8,1.82,4.6,3a95.29,95.29,0,0,1-21.32,20.83c-34.68,24.87-79.26,26.15-116.23,3.17-23-14.28-45.73-28.91-68.65-43.28-2.2-1.38-3.11-2.8-3-5.4.24-5.62.16-11.25.21-16.88,2.26-.64,3.73.95,5.35,2,28.76,18.29,57.69,36.29,87,53.69,12.37,7.34,25.43,12.41,40.15,11.68a89.36,89.36,0,0,0,33.45-8.33c4.2-2,6-5.58,4.6-8.74-1.59-3.72-5.58-5-10.07-3.12a83,83,0,0,1-25,6.69,49.55,49.55,0,0,1-26.65-4.48c-15.52-7.52-29.75-17.23-44.47-26.1-19.29-11.61-38.23-23.8-57.19-36C2815.08,566.13,2812.27,564.8,2810.47,562.19Z" transform="translate(-2352.53 -389.22)"/><path class="cls-2" d="M2561.76,799.76c1.45,7.42,2.41,14.94,4.95,23.1l-28.62-18.35q-78.28-50.18-156.62-100.29c-2.82-1.79-3.6-2.9-1.53-6.06q18.87-28.78,37.25-57.89c1.7-2.68,2.68-3.48,5.76-1.44,14.44,9.56,29.06,18.86,43.71,28.1,2.34,1.47,2.7,2.38,1.15,4.8-5.66,8.82-10.93,17.88-16.59,26.71-1.77,2.75-1,3.49,1.71,4.4q47.93,15.93,95.8,32c1.41.48,2.76,1.14,4.14,1.72-1.24,2-3.48,2.32-5.33,3.28a15.26,15.26,0,0,0-7,19.8c.64,1.42,1.42,2.82,3.13,3s2.29-1.31,3-2.43c1.94-3.07,3.44-6.43,6-9.12.93-1,1.8-2.27,3.08-2.64,3.44-1,4.33-3.33,4.11-6.55a2.79,2.79,0,0,1,1-2.43c.75.52.61,1.31.62,2l.18,54.56c-2.5-.71-1.94-2.87-1.84-4.48.22-3.64-1.29-5.93-4.35-7.81q-43.14-26.62-86.12-53.47c-18.48-11.51-37-22.88-55.45-34.5a25,25,0,0,0-6.51-3.26c-3.77-1.06-6.91.07-8.29,2.89s-.46,6.18,2.7,8.34c7.79,5.32,15.93,10.11,23.94,15.11,40.81,25.46,81.8,50.62,122.48,76.28C2552.43,797.88,2556.75,799.69,2561.76,799.76Z" transform="translate(-2352.53 -389.22)"/><path class="cls-3" d="M2810.47,562.19c8.88,4.66,16.94,10.61,25.43,15.88,26.83,16.64,53.32,33.85,80.92,49.22,13.14,7.32,26.94,7.35,41,3.65a76.52,76.52,0,0,0,13.29-4.74,8,8,0,0,1,11.13,3.85c1.72,3.51.21,7.74-4.05,9.85a98.53,98.53,0,0,1-26.39,8.24c-22.23,4-40.51-5.22-58.57-16.26q-41.56-25.41-82.77-51.44Z" transform="translate(-2352.53 -389.22)"/><path class="cls-3" d="M2561.76,799.76c-3.55,1.8-6.77.79-9.88-1.14q-34.2-21.27-68.39-42.55-39.82-24.74-79.65-49.44c-.78-.48-1.51-1-2.26-1.53-4.11-2.82-5.6-7.12-3.65-10.47,2.14-3.66,6.83-5.07,11.19-2.65,6.76,3.74,13.29,7.91,19.87,12q55.89,34.65,111.76,69.32c5.16,3.2,10.23,6.55,15.49,9.58,3.4,1.95,5.14,4.4,4.59,8.45-.21,1.56-.46,3.37.81,4.8Z" transform="translate(-2352.53 -389.22)"/><path class="cls-4" d="M2707.76,756.71c.3,0,.73.11.88-.05,6.77-6.73,15.54-5.14,23.64-5.2,14.76-.11,29-3.13,43.25-6.35,5.13-1.16,10.34-2,15.52-2.92v15.54a6.74,6.74,0,0,1-4.1,1.83c-7.26.9-14.12,3.7-21.45,4.32s-14.5.8-21.75,1.53c-13.3,1.34-26.7,1.38-40.05,1.37-8.34,0-16.68-.69-25-1-14.28-.52-28.27-3.62-42.42-5.4-17-2.13-32.13-9-46.55-17.71a29.07,29.07,0,0,1-9.16-9.33c.29-4.35-.72-8.75.54-13.06,6.67,1.55,12.64,4.9,18.78,7.7,13.08,6,26.37,11.39,39.8,16.52,1.23.47,2.7.25,4,.55,2.4.54,3.93,1.66,4.06,4.59.29,6.23,3.37,9,9.55,9q21.87,0,43.76,0c1.43,0,3.1.57,4.14-1.08C2705.59,755.85,2706.6,756.05,2707.76,756.71Z" transform="translate(-2352.53 -389.22)"/><path class="cls-5" d="M2789.42,804.67a71.52,71.52,0,0,1-9.12,28c-2.44,1.43-4.31-.65-6.45-1-16.65-3-33.13-7.08-50.16-7.76-10-.41-19.81-2.88-29.86-2.74a11.91,11.91,0,0,1-3.09-.34c-9.94-2-19.67-5.46-30.08-4.27-2.9.33-5.73-.66-8.61-1a12.2,12.2,0,0,0-6.24-.21,8.51,8.51,0,0,1-5.8-.35c-8.62-4.08-18.21-4.15-27.18-6.72-2-.57-4.27-.5-5.64-2.47,1.39-4.29,5-2.82,7.75-2.65,3,.19,5.69.39,7.14-2.92,4.81-1.87,9.53-1,14.24.46,3.78,1.42,7.81.86,11.68,1.21a163,163,0,0,1,28.13,5.38c11.53,3.12,23.13,2.63,34.8,1,15.81-2.23,31.67-3.35,47.64-1.73,6,.62,11.74-1.13,17.36-3.07a50.91,50.91,0,0,1,9.61-2.77C2788.38,800.3,2790.56,801,2789.42,804.67Z" transform="translate(-2352.53 -389.22)"/><path class="cls-6" d="M2791.05,764.12v12.8c-1.27,1.45-3.07,1.84-4.8,2.42-14.09,4.69-28.59,6.46-43.41,6.28-9.69-.11-19.4-.3-29.08.26-2.9-.19-3.43-4-6.41-4.12a20.56,20.56,0,0,1-3.58-1.18,9.16,9.16,0,0,0-3.56-.55c-16.29-.09-32.59-.16-48.85,1.17-13.84-3.4-27.9-6-41.3-11.1a8.24,8.24,0,0,1-3.84-2.32c-1.79-3-1.17-6.76-3.22-9.65-.35-.5.11.24-.38-.11-.12-.09-.42.33-.47.68-.54,2.3-1.19,4.62-3.85,5.13s-4.06-1.5-5.67-3.14c-2.15-2.22-3-5.27-5.08-7.51a122.23,122.23,0,0,1-7-12.36c0-.94-.3-2,.69-2.67,2.78-.53,4.42,1.07,6.23,2.88,3.78,3.77,6.71,8.6,12.92,9.35,2.58.31,4.51,2.92,7,4.15,13.19,6.5,27.19,10.46,41.5,13.51,16,3.41,32.22,3.6,48.49,4.13,17.51.57,34.89-1.34,52.35-1.3,11.27,0,22.31-2.71,33.07-6.23C2785.45,763.78,2788.17,762.12,2791.05,764.12Z" transform="translate(-2352.53 -389.22)"/><path class="cls-7" d="M2690.62,819.87h2.74c1,.79,2.33.48,3.48.83,1.67.53,3.32,1.09,3.41,3.11.09,2.27-1.91,2.39-3.68,3.07,2.07,0,4-.35,5.76.3,12.94,4.83,26.64,4,39.93,4.17a52.46,52.46,0,0,1,22,5.32c3.87,1.78,8.56.6,12.18,3.31-1.28,3.89-3.85,6.95-6.42,10-4.53,1.76-8.69-.46-12.76-1.65-4.86-1.42-9.59-2.78-14.71-2.53-2.6.13-5.09-.78-7.6-1.41-11.75-2.92-23.48-5.95-35.79-5.32-3.76.19-7.38-1.58-11.26-1.45-15,.53-30,2.09-45,2.56A29.9,29.9,0,0,1,2637,840c-6-1-11.81-.59-17.25,2.47-2.35,1.33-5.06,1-7.59,1.19-4.95.33-9.94,1.28-14.89,0a9.09,9.09,0,0,1-2.31-3.72c8.42-7.4,18.85-7.29,29.11-7.77a44.23,44.23,0,0,0,14.08-3.52,19.23,19.23,0,0,1,12.92-.82c5.19,1.5,10.23,2.36,15.33-1,2.69-1.76,6.16-1.07,9.33-.11,2.74.83,6.46,2.91,5.4-3.12a1.33,1.33,0,0,1,1.33-1.56C2685.49,822.42,2687.62,819.55,2690.62,819.87Z" transform="translate(-2352.53 -389.22)"/><path class="cls-8" d="M2597.25,843.69c6.53-1.4,13.23-.84,19.81-1.68,3.23-.4,5.5-3.17,9.08-3.39s7.22-.85,10.79.09c3.25.86,6.35-.62,9.43-.44,14.31.83,28.47-3,42.67-1.76,11.42,1,22.89,1.32,34.3,3.75,8.42,1.8,16.63,5.19,25.78,4.6,5.44-.35,10.83,3.31,16.49,4.36,1.46.27,2.87.89,4.41.77q-3.18,3.68-6.38,7.34c-3.55,1.66-6.88.41-10-1.07-3-1.38-6.05-1.69-9.17-2.31-7-1.38-13.89-2.42-21-2.1-2.07.1-4.17-.77-6.16-1.53a31.34,31.34,0,0,0-17.45-1.66,4.24,4.24,0,0,1-1.35.17c-9.88-1.39-19.72,1.63-29.64.1-5.22-.81-10.52.57-15.87.32-12.76-.6-25.4,1.29-38,3.37-3,.5-5.71,2-8.51,3.17A52.88,52.88,0,0,1,2597.25,843.69Z" transform="translate(-2352.53 -389.22)"/><path class="cls-9" d="M2789.42,804.67c0-3.6-2.14-3.41-4.62-2.64-4.9,1.53-9.8,3.11-14.72,4.59-5.16,1.55-10.32,1.18-15.69.81a122.16,122.16,0,0,0-21.71.2c-7.64.85-15.4.69-23,2.18-15.41,3-30.26-.1-45.13-3.86-8.31-2.09-16.78-3.71-25.48-3.09a3.54,3.54,0,0,1-3.27-1.27c2.32-2,5.16-1.32,7.77-1.28a36.75,36.75,0,0,0,18.23-4.18c6.2-.82,12.43-.19,18.65-.41,15,.27,30.09.63,45.08-.27,16.93-1,34-.22,50.8-3.87,4.63-1,9.8-2.28,14.68,0,0,.32,0,.64,0,1-.76,1.86.15,3.91-.65,5.76C2790.29,800.43,2790.61,802.66,2789.42,804.67Z" transform="translate(-2352.53 -389.22)"/><path class="cls-10" d="M2791.05,764.12c-6,.34-11.35,3.06-17.07,4.45-8.4,2-16.9,3.81-25.51,3.66-12.33-.21-24.57,1.07-36.88,1.17-14.61.11-29.15-.37-43.74-1.26-12.94-.78-25.36-3.84-37.54-7.39-10.16-3-20.8-5.72-29.23-13a2.52,2.52,0,0,0-2.44-.72c-2.71.6-4.2-1.14-6.15-2.81-3.79-3.24-5.74-8.71-11.4-9.72a4.28,4.28,0,0,1,0-4.58,3.87,3.87,0,0,1,2.72,1.47c12.87,13.15,29.62,18.92,46.77,22.75,10,2.22,20.51,3,30.73,4.48a233,233,0,0,0,25.72,2.2,500.17,500.17,0,0,0,52.09-.47c7.67-.52,15.3-2,23.23-1.13,5.08.56,10.53-1.91,15.77-3.21a94.71,94.71,0,0,1,12.93-2.33Z" transform="translate(-2352.53 -389.22)"/><path class="cls-11" d="M2769.91,450.68c2,2.22,3.94,4.41,5,7.23-1.25,1.94-3.2,2.19-5.22,2-14.83-1-29.62-2.45-44.44-3.67-9.79-.81-19.48-3.11-29.42-2.13a10.47,10.47,0,0,0-3.44.9c-8.23.78-16.5,1.09-24.73,2a146.19,146.19,0,0,0-26.87-.18c-6.69.51-13.36.63-20.06.69-5.32,0-10.64-.12-15.95.65-2.49.36-5.27.64-6.84-2.24a40.75,40.75,0,0,1,7.49-10,10.07,10.07,0,0,1,4.8-1.28c22.69.63,45.28-2.28,68-1.89,18.13.32,36.11,2.31,54.13,4,11.36,1.07,22.67,2.68,34.1,2.88A5.59,5.59,0,0,1,2769.91,450.68Z" transform="translate(-2352.53 -389.22)"/><path class="cls-12" d="M2769.91,450.68c-9.52,1-18.84-1.22-28.24-1.6-11.47-.47-22.75-2.44-34.18-3.19-14.31-.95-28.6-2-42.93-1.54-14.58.48-29.13,1.82-43.71,2.13-5.08.11-10.27-.17-15.4-.44a36.62,36.62,0,0,1,8.53-9,152,152,0,0,1,23.47-2.26c11.7,0,23.35-1,35-1,20.08-.1,40,1.83,59.92,4.11,8,.91,16,2,24,2.29a14.53,14.53,0,0,1,5.71,1.34A35.35,35.35,0,0,1,2769.91,450.68Z" transform="translate(-2352.53 -389.22)"/><path class="cls-13" d="M2581.09,734v7.38a8.86,8.86,0,0,1,1,5.67c-.19,1-.34,2-1.51,2.27-.1-1.51-.26-3-.26-4.53q0-113.94.05-227.88c0-3.79.45-7.58.69-11.37,4.07-1.77,8.39-1.36,12.54-.95,8.39.83,16.65-.66,25-.72,2.18,0,4.28-.24,5.83,1.69a6.44,6.44,0,0,1,.4,4,60.57,60.57,0,0,0,.61,18.52c.35,1.89,1,3.87-.27,5.71-7.89-2.22-15.87-.87-23.8-.39-6.13.36-12.22,1.39-18.34,1.86-1.41.11-1.94.36-2,1.66,0,.76,0,1.52,0,2.28V718c0,.76.07,1.52.11,2.28Q2581.08,727.12,2581.09,734Z" transform="translate(-2352.53 -389.22)"/><path class="cls-13" d="M2791.05,536.58c-2.33.63-4.52,1.16-7.06.3a10.48,10.48,0,0,0-7.45.34c-2.62,1-5.31,1.7-8.38-.73-2.68-2.11-7,1-10.37-.83-3.67-2-7.7.58-11.41-.91-1.22-1.29-.87-2.84-.55-4.3,1.06-4.89,1.15-9.9,1.91-14.83.2-2.27.05-4.54.14-6.8.18-4.5,2.12-6.59,6.53-6,5.65.8,11.55,0,17,2.42a5.06,5.06,0,0,0,4-.23c3.67-1.3,7.46-.89,11.23-.61,2.32.17,4,1.32,4.41,3.79Q2791,522.4,2791.05,536.58Z" transform="translate(-2352.53 -389.22)"/><path class="cls-14" d="M2690.62,819.87c-4.51,2.86-5.84,3.36-8.55,3.21-1.17,1.89,3.73,2.63.94,4.78-2.3,1.77-4.82,1.59-7.26.35-3.21-1.63-6.91-2.06-9.53,0-4.58,3.55-9.17,2.76-13.79,1.27-5.38-1.72-10.14-1-15.42.93-4.77,1.72-10.09,2.37-15.23,3.16-7.45,1.14-16.52-2-22.47,5.72-1,1.3-2.88.61-4.37.72a65.86,65.86,0,0,1-7.42-15.54c6.07-1,12.11-2.52,18.33-1.71a11.53,11.53,0,0,0,9.26-2.79c3.41-2.84,7.39-3.6,11.71-4.21,8.46-1.18,17-.28,25.42-1.34,9.14,2.2,18.79-.8,27.78,2.71C2683.46,818.43,2687.4,817.76,2690.62,819.87Z" transform="translate(-2352.53 -389.22)"/><path class="cls-15" d="M2762.13,441.45c-12.57.17-25-1.87-37.4-3.24-6.74-.75-13.5-1.61-20.25-2-13.61-.82-27.31-2.09-40.9-.88-14.44,1.29-29-.63-43.35,2.52-2.14.47-4.19-.33-6.25-.82,3.49-3.61,7.07-7.12,11.64-9.4,19.09-1.57,38.22-2.76,57.34-2s38.53,2,57.63,4.84c3.48.51,7,.31,10.44.8A47.92,47.92,0,0,1,2762.13,441.45Z" transform="translate(-2352.53 -389.22)"/><path class="cls-16" d="M2759.44,862a32.67,32.67,0,0,1-8.29,7.3c-7,1.28-13.58-.37-19.83-3.34a15.68,15.68,0,0,0-7.86-1.81c-5.56.34-11.18-1.66-16.7.42a.64.64,0,0,1-.45,0c-7.7-3.53-16.21-1.39-24.1-3.47a14.16,14.16,0,0,0-9.35.75,16.48,16.48,0,0,1-8.47.9,76,76,0,0,0-20,.27c-9.76,1.49-19.57,2.63-29.47,1.54a32.19,32.19,0,0,1-7.27-7.28,3,3,0,0,1,3.26-2c7.28.3,14.28-3.37,21.67-1.48a3.28,3.28,0,0,0,2.25-.16c5.86-3.17,12.2-1.93,18.34-1.78,3.85.1,7.05-2.34,11.13-1.63a150.22,150.22,0,0,0,25.61,2.64c9.71,0,19.39.86,29.09.56,2.86-.09,5.35.32,7.57,2.34,2,1.86,4.62,1.94,7.3,1.69,8-.73,15.65,1.46,23.36,3A3.31,3.31,0,0,1,2759.44,862Z" transform="translate(-2352.53 -389.22)"/><path class="cls-17" d="M2791,791.54c-8,.71-16,1.12-23.81,3-5.38,1.3-10.93,1.11-16.25,1.25-11.08.31-22.13,1.41-33.23,1.26-12.38-.17-24.76,0-37.14,0a1,1,0,0,1,.35-1.4c3.35-1.48,6.89-.63,10.35-.87,5.4-.22,10.87,1.06,16.18-.85a31.1,31.1,0,0,1,2.48-2.39c2.38-1.5.63-4.71,2.64-6.36a23.61,23.61,0,0,1,7.16-.95c11.51.07,23,.27,34.55,0,11.71-.33,22.93-3.5,34.1-6.77a23.65,23.65,0,0,1,2.67-.47Q2791,784.22,2791,791.54Z" transform="translate(-2352.53 -389.22)"/><path class="cls-18" d="M2751,431.29c-2.53,2.14-5.59,1.3-8.27,1-12.59-1.52-25.16-3-37.85-3.73s-25.38-2-38.1-1.57c-11.29.37-22.59.39-33.84,1.65-2.38.27-5.17,1.17-7.35-1a61.64,61.64,0,0,1,17.41-9.87c14.58-.17,29.14-.75,43.74-.41,15.39.36,30.58,2.81,45.91,3.7a15.84,15.84,0,0,1,4.86,1.21A50.35,50.35,0,0,1,2751,431.29Z" transform="translate(-2352.53 -389.22)"/><path class="cls-19" d="M2643,883a53.65,53.65,0,0,1-14.81-8.1,2.62,2.62,0,0,1,2.31-2c4.25-.15,8.28-2,12.28-2.33,16.77-1.37,33.57-.21,50.37.38a208.71,208.71,0,0,1,27.35,3.17c2.4.4,4.85-.15,7.27-.1,3.81.07,7.63.46,9.71,4.46a52,52,0,0,1-15.78,7.29c-6.67-1-13-2.88-20.16-2-6,.71-12.39-.55-18.44-2.15-1.47-.39-3-1.06-4.46-.8-10.48,1.84-21.22.23-31.66,2.52A5.61,5.61,0,0,1,2643,883Z" transform="translate(-2352.53 -389.22)"/><path class="cls-20" d="M2759.44,862l-20.08-3.52a8.84,8.84,0,0,0-4.94.25c-2.63,1-5.92.85-7.37-.86-3.88-4.58-8.84-3.35-13.34-3.13-7.71.37-15.35-.64-23.07-.45-9.32.22-18.69-1.74-28-2.82-.89-.1-1.82-.75-2.62-.15-4.44,3.34-9.35,1.8-14.16,1.49-2.88-.18-5.77-.31-8.39,1.39a7.67,7.67,0,0,1-6.53.83,14.36,14.36,0,0,0-9.84.43c-4.33,2-9.15-.24-13.41,1.83l-1.21-1.5c2.2-4.38,6.64-4.08,10.47-4.81,11.43-2.18,23.06-3.83,34.61-3,7.32.5,14.74-2.56,21.89.76a3.81,3.81,0,0,0,2.64,0c5.7-1.35,11.36-3,17.24-.56,1.88.77,3.85-.49,5.78-.82a34.18,34.18,0,0,1,19.45,2.07c1.66.7,3.62,1.67,5.21,1.36,7.79-1.51,15.07,1.56,22.61,2,2,.12,4.21.16,5.68,1.28,3.52,2.67,7.69,2.43,11.6,3.34C2762.86,859.45,2761.1,860.68,2759.44,862Z" transform="translate(-2352.53 -389.22)"/><path class="cls-21" d="M2614.93,864.57c2.25-2,4.81-.92,7.32-.89,7.73.12,15.37-1,23-2a65.62,65.62,0,0,1,20.32,0,10.76,10.76,0,0,0,6.6-1c3.84-1.75,7.79-2.4,11.83-.33a9.47,9.47,0,0,0,7.13.4c3.07-1,5.71-.11,8.41.66,3.87,1.11,7.72.88,11.6,1.07,7.07.36,14.63-1.64,21.54,2.77,5.42,3.45,12.29,2.68,18.47,4-1.9,2.75-5.44,3.14-7.72,5.35-2.13.37-4.33.64-6.23-.55-6.62-4.17-13.94-3.58-21.23-3.32-1.36,0-2.8.56-4.07,0-9-3.73-18.35-2-27.53-1.9-5.36,0-10.57-.81-15.84-1-12.45-.41-24.89-.31-37.23,1.94a28.86,28.86,0,0,1-9.51.4A26.31,26.31,0,0,1,2614.93,864.57Z" transform="translate(-2352.53 -389.22)"/><path class="cls-22" d="M2652.24,814.38c-3.72,1.09-7.57,1.23-11.39,1.71-8.84,1.11-18.48-1.31-26.15,5.83a9.19,9.19,0,0,1-9.38,2c-3.93-1.35-7.79.48-11.64.89a16,16,0,0,1-6.16-.37,73.61,73.61,0,0,1-5.48-20.07c4.37.87,8.56-.31,12.86-.8,4.15-.47,8.65-.84,12.56,1.69,7.79,2.83,15.95,4,24.06,5.42,1.65.28,3.33.28,4.74,1.26,3.44,2.39,7.1,3.25,11.13,1.75C2649.14,813,2650.6,814.3,2652.24,814.38Z" transform="translate(-2352.53 -389.22)"/><path class="cls-14" d="M2776.43,840c-4.88-1.11-10.15-.16-14.69-3.14-3.26-2.13-7.42-2.32-10.72-4.52a3,3,0,0,0-2.16-.32c-8.71,2.45-17.35,0-26-.45a20.57,20.57,0,0,0-4.84,0,14.6,14.6,0,0,1-8.89-.91,28.07,28.07,0,0,0-15.91-2.34c.16-2.15,1.67-2.09,2.62-2.67,1.18-.71,3.56.65,3.64-1.66.07-1.8-2.13-1.84-3.33-2.65-.87-.57-2.15-.35-2.78-1.4,29.29,2.18,58.65,3.86,86.94,12.79A30.9,30.9,0,0,1,2776.43,840Z" transform="translate(-2352.53 -389.22)"/><path class="cls-23" d="M2737.54,422.24c-10.18.59-20.16-1.37-30.22-2.34-7.17-.7-14.39-1.07-21.59-1.15-11-.12-22-.76-33,.57a18.3,18.3,0,0,1-9.71-1.58c9.69-5.12,20.2-7.59,30.94-8.72,22.05-2.32,43,1.52,62.56,12.33A6,6,0,0,1,2737.54,422.24Z" transform="translate(-2352.53 -389.22)"/><path class="cls-24" d="M2791,508.22c-3.15-3-12.29-4.05-16-1.49-1.53,1.06-2.24,1.15-3.8,0-2.49-1.82-5.71-2-8.68-2a32.22,32.22,0,0,1-7.57-.71c-3.9-1-5.78.79-5.83,4.95,0,2.28-.07,4.55-.11,6.83-1.74-.36-1.94-1.83-1.95-3.13-.07-7.18-2.23-13.88-4.62-20.53a4.76,4.76,0,0,1-.16-3.52,2.74,2.74,0,0,1,2.65-1.45c14.4,1.29,28.87.92,43.28,2A75.39,75.39,0,0,1,2791,508.22Z" transform="translate(-2352.53 -389.22)"/><path class="cls-25" d="M2623.8,505.51a58.94,58.94,0,0,0-17.9.4c-5.2.77-10.14-.14-15.14-.27-3.24-.09-6.55,1.61-9.73-.13a45.72,45.72,0,0,1,1.9-13.75c.49-2.39,2.23-3,4.36-3.11,2.87-.13,5.75-.06,8.63-.07,7.54,0,15.08.59,22.63-.7,3.29-.56,7-1.07,10.1,1.18C2629.32,495.21,2627,500.49,2623.8,505.51Z" transform="translate(-2352.53 -389.22)"/><path class="cls-26" d="M2598,456a8.43,8.43,0,0,0,6.17,1c8-1.64,16-.46,24.07-.87,7.7-.39,15.41-1.42,23.09-1.14,5.47.2,11.12-.84,16.49,1.15a3.51,3.51,0,0,1-2.67,2.21c-5,1.55-9.15,4.55-13.5,7.22-1.78,1.09-3.47,2.55-5.82,1.59-6.87-1.39-13.62.43-20.4.88-4.72.31-9.39.65-14.08-.1a39.26,39.26,0,0,0-11.35.22c-2.82.36-5.83.86-7.93-2A39,39,0,0,1,2598,456Z" transform="translate(-2352.53 -389.22)"/><path class="cls-27" d="M2643,883c7.44-2.29,15.18-2.25,22.82-2.62,3.85-.18,7.67.22,11.49-.92,3.25-1,6.13,1.27,9.25,1.73a150.6,150.6,0,0,0,24,1.12c3.62,0,8,.5,11.12,3.51-17.54,7-35.68,8-54.12,4.93C2659.07,889.3,2650.73,887.09,2643,883Z" transform="translate(-2352.53 -389.22)"/><path class="cls-28" d="M2692.45,454.16c.16-.78.47-1.58,1.38-1.54,6.55.31,13.1,0,19.66.88,8.48,1.2,17,1.86,25.56,2.65,10,.92,20.09,1.65,30.12,2.65,2.09.21,3.84-.63,5.76-.89a26.93,26.93,0,0,1,4.66,8.16c-1.4,2.72-4,2.46-6.38,2.4-11.5-.29-23-.92-34.43-2.2-5.71-.64-11.46-.9-17.19-1.34Z" transform="translate(-2352.53 -389.22)"/><path class="cls-29" d="M2628.58,490.2c-3.15-2.34-6.94-1.56-10.08-1-10.11,1.94-20.22.16-30.3.72-2,.1-4-.29-5.27,1.8a58.36,58.36,0,0,1,4.58-15.45c12,.29,23.86-2.61,35.86-1,2.3.31,4.54-.43,6.82-.37s4.66-.47,6.13,2C2635.68,482.49,2632.51,486.57,2628.58,490.2Z" transform="translate(-2352.53 -389.22)"/><path class="cls-30" d="M2720.76,464.46c1.47-1.66,3.41-1,5.14-.86,10.69.91,21.31,2.49,32.08,2.69,5.43.1,10.84,1.15,16.32.87a11.16,11.16,0,0,0,5.29-1.09,44.63,44.63,0,0,1,5,11.15c-.87,2.16-2.84,2.14-4.61,2.11-6.21-.09-12.43.12-18.61-.59-8.58-1-17.23-1-25.82-1.6a3.62,3.62,0,0,1-2.52-.77C2729,472.38,2724,469.27,2720.76,464.46Z" transform="translate(-2352.53 -389.22)"/><path class="cls-31" d="M2621.79,870.27c4.26-2.73,9.4-2.14,13.91-2.54,13.78-1.23,27.58-1.93,41.56-.15,8.2,1,16.9,0,25.37-.22,2.8-.07,5.44.18,7.87,1.73,1.32.84,2.72.64,4.3.55,7.72-.48,15.55-1.52,22.63,3.21,1.66,1.11,4,1.22,6,1.8-1.24,2.41-4.09,2.33-5.92,3.82-3.64-2.31-7.35-3.59-11.91-3-6.42.86-12.59-1.25-18.75-2.82a8.75,8.75,0,0,0-3.08-.66c-12.13,1.83-24.12-1.16-36.19-1-8.4.12-16.81.19-25.21.29-3.65,4.92-9.48.87-13.73,3.33-.13.07-.28.12-.42.19C2625.63,873.94,2623.72,872.09,2621.79,870.27Z" transform="translate(-2352.53 -389.22)"/><path class="cls-32" d="M2734.26,476.34c2.64-1.15,5.24-.43,7.94-.18,7.57.72,15.2,1.2,22.75,1.57,6.42.31,13.16,1.89,19.62-.51a51,51,0,0,1,3.63,11.88c-1.63,1.12-3.49.89-5.3.87-12.5-.14-25-.11-37.44-1.77a2.55,2.55,0,0,0-2.81,1A25.42,25.42,0,0,1,2734.26,476.34Z" transform="translate(-2352.53 -389.22)"/><path class="cls-33" d="M2635.86,478.3c-.31-2.49-2.23-2-3.82-2-4.15-.11-8.24.53-12.47.14-8.23-.74-16.49.17-24.68,1.45-2.59.4-5-.69-7.38-1.55a37.36,37.36,0,0,1,4.52-10.09,18.28,18.28,0,0,0,9.77.32,20.43,20.43,0,0,1,8.56-.18c8.64,1.82,17-.34,25.54-.78,3.57-.19,7.67-2.12,10.86,1.43C2643.67,471.29,2641,476,2635.86,478.3Z" transform="translate(-2352.53 -389.22)"/><path class="cls-34" d="M2607.46,805.25c-6.41-.52-12.8-1.15-19.14.81a6.19,6.19,0,0,1-6.28-1.7,43.23,43.23,0,0,1-1.19-12.57c-.7-2.56-.17-5.17-.32-7.75.14-.69.75-1.25,1.22-.81,4.3,4,11.34,3.41,14.9,8.83,1.08,1.65,3.18,2.26,5.13,2.7,5.47,1.23,10.71,3.33,16.32,4a5.46,5.46,0,0,1,4,1.91c.16,3.28-.8,4.68-4.58,3.92C2614.26,803.94,2610.68,803.14,2607.46,805.25Z" transform="translate(-2352.53 -389.22)"/><path class="cls-35" d="M2560.84,739.51c0,1.67-.06,3.35,0,5,.11,2.32-.13,3.67-3.14,4.3-3.91.81-5.66,4.74-7.73,7.88-.92,1.38-1.29,3.21-2.39,4.37s-1.44,3.54-3.87,3.2c-2.67-.37-3.84-2.29-4.59-4.53-3.24-9.73.44-17.77,9.91-21.71,1.25-.53,2.54-1,3.82-1.43C2555.67,737.18,2558.49,737.69,2560.84,739.51Z" transform="translate(-2352.53 -389.22)"/><path class="cls-36" d="M2581.09,783.38l-.24,8.41c-1.24-6.13-.44-12.33-.52-18.5-.1-8,.13-16,.21-24l.51-1.66c3.75,2.42,5,7.14,2.85,12.11a17,17,0,0,0-1.62,7.81C2581.92,772.84,2583.64,778.27,2581.09,783.38Z" transform="translate(-2352.53 -389.22)"/><path class="cls-17" d="M2790.33,798.25c.11-1.93-.74-4,.65-5.76C2791.06,794.45,2791.32,796.42,2790.33,798.25Z" transform="translate(-2352.53 -389.22)"/><path d="M2635.86,478.3c3.88-3.53,6.7-8.07,10.9-11.29,6.82-4,13.35-8.51,21-10.85a97.74,97.74,0,0,1,24.67-2c10.12,1.55,19.72,4.55,28.31,10.3,5.06,3.32,9.2,7.69,13.51,11.88l8.38,12.88a85,85,0,0,1,6.35,26.56,140.94,140.94,0,0,1-2.62,19c-4.7,13.18-12,24.47-23.51,32.8a62.84,62.84,0,0,1-96.29-30c-.45-1.28-1-2.52-1.47-3.79a74,74,0,0,1-1.31-28.24l4.78-15.31Z" transform="translate(-2352.53 -389.22)"/><path d="M2707.76,756.71l-2.57.83c-15.82,0-31.63.11-47.45.12-5.34,0-9-3.06-9.11-7.52s3.56-8,9.12-8.09c14.75-.12,29.51,0,44.26-.07,4.1,0,7.65,1.06,9.26,5.2S2710.68,754.18,2707.76,756.71Z" transform="translate(-2352.53 -389.22)"/><path class="cls-37" d="M2581.09,783.38V766.87a10.7,10.7,0,0,1,7.44-1.93,3.11,3.11,0,0,1,1.11,1.42c1.74,6.73,7,9.5,12.9,11.68,12.15,4.48,24.51,8.15,37.45,9.52a15.05,15.05,0,0,1,5.71,1.45c1.53.86,2,2.58,3,3.84,2.13,2.1,4.82,2.72,7.68,2.95,1.72.14,3.6-.28,5,1.22-3.86,3.71-8.85,4.16-13.76,4.51-3.93.28-7.88.06-11.83.06a40.73,40.73,0,0,0-13.7-.91c-7.56-.8-14.71-3.32-22-5.06a10.33,10.33,0,0,1-5.21-3.45c-2.28-2.44-4.41-4.91-8.42-4.38C2583.43,788.18,2583.22,784.45,2581.09,783.38Z" transform="translate(-2352.53 -389.22)"/><path class="cls-38" d="M2710.46,792.38l-1.64,1.58c-1.22,1.76-3.06,1.63-4.9,1.7-4.22.15-8.47-.48-12.67.36a49.52,49.52,0,0,0-10.68,0c-8.56,1.07-17.15.45-25.72.3a9.35,9.35,0,0,1-6.48-2.89,17.47,17.47,0,0,1-2.21-5.45c-.64-3.78,3-7.62,7.7-7.83,16.49-.76,33-1.31,49.5-1,.75,0,1.55-.08,1.81.9l2.52.56C2712.64,784,2713.5,787.62,2710.46,792.38Z" transform="translate(-2352.53 -389.22)"/><path class="cls-39" d="M2645.84,789.71c-8.48-1.46-17.07-2.46-25.4-4.51a153.72,153.72,0,0,1-25.2-9c-4.7-2.08-5.76-6.75-7-11.17-1.26-4.27-2-8.53,0-12.8,2.55,2,2.8,5.63,5.35,7.77,1.47,1.23,2.4,3.57,4.67,2.93s2.7-3,2.78-5.21c2.06-.13,1.77,1.58,2,2.72a10.43,10.43,0,0,0,3.5,6.41c7.72,3.91,16,6.1,24.33,8.26,6.54,1.7,13.46,2,19.53,5.44A15.77,15.77,0,0,0,2645.84,789.71Z" transform="translate(-2352.53 -389.22)"/><path class="cls-40" d="M2588.27,752.24c-.21,4.27.76,8.53,0,12.8a11.08,11.08,0,0,1-7.19,1.83,11.63,11.63,0,0,1,1.57-7.34c2.36-4.11.95-8.19-1.6-11.89,0-2.1,0-4.2,0-6.29C2584.83,744.09,2585.5,748.86,2588.27,752.24Z" transform="translate(-2352.53 -389.22)"/><path class="cls-10" d="M2645.84,789.71a8.84,8.84,0,0,1,4.57-9.15c5.85-2,12-1.13,18-1.58,11-.82,22.18-.25,33.29-.22,1.3,0,2.83-.4,3.48,1.36-16.83-.75-33.67-.18-50.49.45-6.74.25-9,5.7-5.87,12.72a.67.67,0,0,1-1.14.09Z" transform="translate(-2352.53 -389.22)"/><path class="cls-41" d="M2606.55,766.86c-3.5-.11-3.75-3-4.5-5.39-.39-1.22.34-2.74-1-3.74.1-.85-.27-2,.85-2.32.87-.29,1.32.51,1.73,1.14C2605.69,759.68,2605.94,763.32,2606.55,766.86Z" transform="translate(-2352.53 -389.22)"/><path class="cls-10" d="M2710.46,792.38c2.38-4.69,1.31-8.55-2.77-11.7,3.11-.14,3.74,2.44,4.88,4.47C2712,787.59,2714.11,790.83,2710.46,792.38Z" transform="translate(-2352.53 -389.22)"/><path class="cls-39" d="M2647.67,793.38l1.14-.09a15.07,15.07,0,0,0,9.43,2.7c7.45-.07,14.89,0,22.33.07v1h-19.19C2656.52,796.9,2651.39,797.8,2647.67,793.38Z" transform="translate(-2352.53 -389.22)"/><path class="cls-39" d="M2691.25,796c3.35-1,6.8-.42,10.2-.53a19.56,19.56,0,0,0,7.37-1.53c-.53,2.16-2.23,2.16-4,2.15Z" transform="translate(-2352.53 -389.22)"/><path class="cls-2" d="M2685.71,560.5a43.78,43.78,0,0,1,.31-87.56c24.09.17,43.84,20,43.73,44A43.94,43.94,0,0,1,2685.71,560.5Z" transform="translate(-2352.53 -389.22)"/><path class="cls-3" d="M2650.43,516.76c1.09-16.35,8.86-26.06,26.89-31.29,8-2.3,15.79-2.84,23.28,1.71,5.81,3.53,7.32,9.18,3.39,13.19a7,7,0,0,1-9.13,1.34c-8.63-4.75-16.16-1-23.35,3.4-4.43,2.7-5.14,7.72-5.48,12.45-.52,7.13-3.13,11-7.69,10.73C2653.45,528,2650.4,523.54,2650.43,516.76Z" transform="translate(-2352.53 -389.22)"/></svg>