<svg id="Layer_1" data-name="Layer 1" xmlns="http://www.w3.org/2000/svg" viewBox="0 0 511.32 510.72"><defs><style>.cls-1{fill:#fff;}</style></defs><path class="cls-1" d="M811.4,293.14a14.49,14.49,0,0,1,20.1,0l77,77a74.67,74.67,0,0,0,53.1,22h15.1l-97.1,97.1c-30.3,29.5-79.5,29.5-109.8,0l-97.5-97.4h9.3a74.67,74.67,0,0,0,53.1-22Zm20.1-73.6c-6.4,5.5-14.6,5.6-20.1,0l-76.7-76.7c-14.2-15.1-33.1-22-53.1-22h-9.3L769.7,23.4a77.71,77.71,0,0,1,109.9,0l97.2,97.14H961.6a74.67,74.67,0,0,0-53.1,22Zm-149.9-76.2c13.8,0,26.5,5.6,37.1,15.4l76.7,76.7c7.2,6.3,16.6,10.8,26.1,10.8s18.8-4.5,26-10.8l77-77a53.13,53.13,0,0,1,37.1-15.3h37.7l58.3,58.3a77.68,77.68,0,0,1,0,109.8l-58.3,58.3H961.6a52.8,52.8,0,0,1-37.1-15.4l-77-77c-13.9-13.9-38.2-13.9-52.1.1l-76.7,76.6c-10.6,9.8-23.3,15.4-37.1,15.4H649.78l-58-58a77.59,77.59,0,0,1,0-109.8l58-58.1Z" transform="translate(-569 -0.64)"/></svg>